{
  "accessors": [
    {
      "bufferView": 2,
      "componentType": 5126,
      "count": 26115,
      "max": [
        0.30526629090309143,
        0.21673430502414703,
        0.3396014869213104
      ],
      "min": [
        -0.28645092248916626,
        -0.23328423500061035,
        -0.32684293389320374
      ],
      "type": "VEC3"
    },
    {
      "bufferView": 2,
      "byteOffset": 313380,
      "componentType": 5126,
      "count": 26115,
      "max": [
        0.9997965097427368,
        0.9999591112136841,
        0.9999948143959045
      ],
      "min": [
        -0.9998806118965149,
        -0.9999389052391052,
        -0.9998476505279541
      ],
      "type": "VEC3"
    },
    {
      "bufferView": 1,
      "componentType": 5126,
      "count": 26115,
      "max": [
        0.9999503493309021,
        0.9452634453773499
      ],
      "min": [
        0.00010694190859794617,
        0.00015091896057128906
      ],
      "type": "VEC2"
    },
    {
      "bufferView": 1,
      "byteOffset": 208920,
      "componentType": 5126,
      "count": 26115,
      "max": [
        0.9999503493309021,
        0.9452634453773499
      ],
      "min": [
        0.00010694190859794617,
        0.00015091896057128906
      ],
      "type": "VEC2"
    },
    {
      "bufferView": 0,
      "componentType": 5125,
      "count": 150000,
      "type": "SCALAR"
    }
  ],
  "asset": {
    "extras": {
      "author": "Frank McMains (https://sketchfab.com/frankmcmains)",
      "license": "CC-BY-4.0 (http://creativecommons.org/licenses/by/4.0/)",
      "source": "https://sketchfab.com/3d-models/fortune-cookie-47018f5b63ef477484f5e25debb484df",
      "title": "Fortune Cookie"
    },
    "generator": "Sketchfab-12.56.0",
    "version": "2.0"
  },
  "bufferViews": [
    {
      "buffer": 0,
      "byteLength": 600000,
      "name": "floatBufferViews",
      "target": 34963
    },
    {
      "buffer": 0,
      "byteLength": 417840,
      "byteOffset": 600000,
      "byteStride": 8,
      "name": "floatBufferViews",
      "target": 34962
    },
    {
      "buffer": 0,
      "byteLength": 626760,
      "byteOffset": 1017840,
      "byteStride": 12,
      "name": "floatBufferViews",
      "target": 34962
    }
  ],
  "buffers": [
    {
      "byteLength": 1644600,
      "uri": "scene.bin"
    }
  ],
  "extensionsUsed": [
    "KHR_materials_unlit"
  ],
  "images": [
    {
      "uri": "textures/material0_baseColor.jpeg"
    }
  ],
  "materials": [
    {
      "doubleSided": true,
      "extensions": {
        "KHR_materials_unlit": {}
      },
      "name": "material0",
      "pbrMetallicRoughness": {
        "baseColorTexture": {
          "index": 0
        },
        "metallicFactor": 0.0
      }
    }
  ],
  "meshes": [
    {
      "name": "Model_material0_0",
      "primitives": [
        {
          "attributes": {
            "NORMAL": 1,
            "POSITION": 0,
            "TEXCOORD_0": 2,
            "TEXCOORD_1": 3
          },
          "indices": 4,
          "material": 0,
          "mode": 4
        }
      ]
    }
  ],
  "nodes": [
    {
      "children": [
        1
      ],
      "matrix": [
        0.9997767210006714,
        0.01171042583882809,
        -0.01758954487740993,
        0.0,
        -0.018043039366602898,
        0.039817634969949944,
        -0.9990440607070923,
        0.0,
        -0.010998857207596302,
        0.999138355255127,
        0.04002003744244598,
        0.0,
        -5.4342730436474085e-05,
        -0.0029788501560688027,
        0.004474027082324027,
        1.0
      ],
      "name": "Sketchfab_model"
    },
    {
      "children": [
        2
      ],
      "matrix": [
        1.0,
        0.0,
        0.0,
        0.0,
        0.0,
        -1.0,
        0.0,
        0.0,
        0.0,
        0.0,
        -1.0,
        0.0,
        0.0,
        0.0,
        0.0,
        1.0
      ],
      "name": "model.fbx"
    },
    {
      "children": [
        3
      ],
      "name": "RootNode"
    },
    {
      "children": [
        4
      ],
      "name": "Model"
    },
    {
      "mesh": 0,
      "name": "Model_material0_0"
    }
  ],
  "samplers": [
    {
      "magFilter": 9729,
      "minFilter": 9987,
      "wrapS": 10497,
      "wrapT": 10497
    }
  ],
  "scene": 0,
  "scenes": [
    {
      "name": "Sketchfab_Scene",
      "nodes": [
        0
      ]
    }
  ],
  "textures": [
    {
      "sampler": 0,
      "source": 0
    }
  ]
}
